<svg width="256" height="251.99999999999997" xmlns="http://www.w3.org/2000/svg" version="1.1" preserveAspectRatio="xMidYMid">
  <g>
    <title>Layer 1</title>
    <g stroke="null" fill="#f77f00" transform="rotate(150 127.151 122.831) skewX(20)" id="svg_1">
      <path stroke="null" d="m52.84475,-0.47956l0,82.56551l-50.78725,0c-0.69789,-0.00188 -1.326,-0.64435 -1.5904,-1.62675c-0.26441,-0.98239 -0.11279,-2.1104 0.38388,-2.85614l51.99378,-78.08262l0,0l-0.00001,0zm59.6414,245.87087c-0.49444,0.7387 -1.23186,0.95448 -1.87119,0.54755c-0.63933,-0.40694 -1.05595,-1.35726 -1.05716,-2.41143l0,-76.30476l54.99125,0l-52.0629,78.15909l0,0.00955l0,0z" opacity="0.6" id="svg_2"/>
      <path stroke="null" d="m161.11171,-0.47956l-108.26067,0l0,82.56551l53.26942,0c1.89777,0 3.43735,2.34182 3.43735,5.22845l0,79.90827l54.99125,0l0,-162.46422c0.00166,-1.38833 -0.35975,-2.72066 -1.00456,-3.70325c-0.64481,-0.98259 -1.52007,-1.53476 -2.43279,-1.53476z" id="svg_3" fill="#fff"/>
    </g>
  </g>
</svg>